<svg width="112" height="44" viewBox="0 0 112 44" fill="none" xmlns="http://www.w3.org/2000/svg">
<g id="Logo" clip-path="url(#clip0_2605_174281)">
<path id="Vector" d="M26.5852 0C22.2113 0 18.0166 1.77474 14.9239 4.93381L4.8303 15.2437C1.73751 18.4027 0 22.6873 0 27.1549C0 36.4583 7.38359 44 16.4917 44C20.8656 44 25.0603 42.2252 28.1531 39.0661L35.1348 31.9348C35.1348 31.9346 35.135 31.9349 35.1348 31.9348L55.4773 11.1563C56.9544 9.6476 58.9578 8.8 61.0468 8.8C64.544 8.8 67.509 11.1282 68.537 14.35L74.957 7.79234C72.0282 3.1069 66.8927 0 61.0468 0C56.6729 0 52.4782 1.77474 49.3854 4.93381L22.0611 32.8437C20.584 34.3524 18.5807 35.2 16.4917 35.2C12.1417 35.2 8.61539 31.5982 8.61539 27.1549C8.61539 25.0212 9.4452 22.9749 10.9223 21.4661L21.0158 11.1563C22.4929 9.6476 24.4963 8.8 26.5852 8.8C30.0826 8.8 33.0475 11.1283 34.0754 14.3502L40.4956 7.7925C37.5668 3.10699 32.4313 0 26.5852 0Z" fill="#040508"/>
<path id="Vector_2" d="M56.5221 32.8437C55.045 34.3524 53.0416 35.2 50.9526 35.2C47.4558 35.2 44.4911 32.8724 43.4629 29.6512L37.043 36.2086C39.9719 40.8935 45.1071 44 50.9526 44C55.3265 44 59.5212 42.2252 62.614 39.0661L89.9383 11.1563C91.4154 9.6476 93.4187 8.8 95.5077 8.8C99.8577 8.8 103.384 12.4019 103.384 16.8451C103.384 18.9788 102.554 21.0251 101.077 22.5339L90.9836 32.8437C89.5065 34.3524 87.5031 35.2 85.4142 35.2C81.9171 35.2 78.9522 32.872 77.9241 29.6504L71.5042 36.208C74.433 40.8933 79.5684 44 85.4142 44C89.7881 44 93.9828 42.2252 97.0755 39.0661L107.169 28.7563C110.262 25.5973 111.999 21.3127 111.999 16.8451C111.999 7.54181 104.616 0 95.5077 0C91.1338 0 86.9391 1.77474 83.8463 4.93381L56.5221 32.8437Z" fill="#040508"/>
</g>
<defs>
<clipPath id="clip0_2605_174281">
<rect width="112" height="44" fill="white"/>
</clipPath>
</defs>
</svg>
