<svg width="32" height="32" viewBox="0 0 32 32" fill="none" xmlns="http://www.w3.org/2000/svg">
<g id="vuesax/linear/tick-square">
<g id="tick-square">
<path id="Vector" d="M12.0013 29.3337H20.0013C26.668 29.3337 29.3346 26.667 29.3346 20.0003V12.0003C29.3346 5.33366 26.668 2.66699 20.0013 2.66699H12.0013C5.33464 2.66699 2.66797 5.33366 2.66797 12.0003V20.0003C2.66797 26.667 5.33464 29.3337 12.0013 29.3337Z" stroke="white" stroke-width="1.5" stroke-linecap="round" stroke-linejoin="round"/>
<g id="vuesax/linear/sun">
<g id="sun">
<path id="Vector_2" d="M15.9987 21.4163C18.9902 21.4163 21.4154 18.9912 21.4154 15.9997C21.4154 13.0081 18.9902 10.583 15.9987 10.583C13.0072 10.583 10.582 13.0081 10.582 15.9997C10.582 18.9912 13.0072 21.4163 15.9987 21.4163Z" stroke="white" stroke-width="1.5" stroke-linecap="round" stroke-linejoin="round"/>
<path id="Vector_3" d="M21.9513 21.9503L21.843 21.842M21.843 10.1587L21.9513 10.0503L21.843 10.1587ZM10.0513 21.9503L10.1596 21.842L10.0513 21.9503ZM16.0013 7.73366V7.66699V7.73366ZM16.0013 24.3337V24.267V24.3337ZM7.73464 16.0003H7.66797H7.73464ZM24.3346 16.0003H24.268H24.3346ZM10.1596 10.1587L10.0513 10.0503L10.1596 10.1587Z" stroke="white" stroke-width="1.5" stroke-linecap="round" stroke-linejoin="round"/>
</g>
</g>
</g>
</g>
</svg>
