<svg width="32" height="32" viewBox="0 0 32 32" fill="none" xmlns="http://www.w3.org/2000/svg">
<g id="designtools" clip-path="url(#clip0_2710_104)">
<path id="Vector" d="M29.0794 5.25317C27.026 10.3732 21.8794 17.3332 17.5727 20.7865L14.946 22.8932C14.6127 23.1332 14.2794 23.3465 13.906 23.4932C13.906 23.2532 13.8927 22.9865 13.8527 22.7332C13.706 21.6132 13.1994 20.5732 12.306 19.6798C11.3994 18.7732 10.2927 18.2398 9.15937 18.0932C8.89271 18.0798 8.62604 18.0532 8.35938 18.0798C8.50604 17.6665 8.73271 17.2798 9.01271 16.9598L11.0927 14.3332C14.5327 10.0265 21.5194 4.85317 26.626 2.81317C27.4127 2.51984 28.1727 2.73317 28.6527 3.2265C29.1594 3.71984 29.3994 4.47984 29.0794 5.25317Z" stroke="white" stroke-width="1.5" stroke-linecap="round" stroke-linejoin="round"/>
<path id="Vector_2" d="M13.9083 23.4931C13.9083 24.9597 13.3483 26.3597 12.295 27.4264C11.4817 28.2397 10.375 28.7997 9.055 28.9731L5.775 29.3331C3.98833 29.5331 2.455 28.0131 2.66833 26.1997L3.02833 22.9197C3.34833 19.9997 5.78833 18.1331 8.375 18.0797C8.64167 18.0664 8.92167 18.0797 9.175 18.0931C10.3083 18.2397 11.415 18.7597 12.3217 19.6797C13.215 20.5731 13.7217 21.6131 13.8683 22.7331C13.8817 22.9864 13.9083 23.2397 13.9083 23.4931Z" stroke="white" stroke-width="1.5" stroke-linecap="round" stroke-linejoin="round"/>
<path id="Vector_3" d="M18.9864 19.293C18.9864 15.813 16.1597 12.9863 12.6797 12.9863" stroke="white" stroke-width="1.5" stroke-linecap="round" stroke-linejoin="round"/>
<path id="Vector_4" d="M26.8276 16.9736L27.8143 17.947C29.8009 19.9336 29.8009 21.8936 27.8143 23.8803L23.8676 27.827C21.9076 29.787 19.9209 29.787 17.9609 27.827" stroke="white" stroke-width="1.5" stroke-linecap="round"/>
<path id="Vector_5" d="M4.14578 14.0131C2.18578 12.0264 2.18578 10.0664 4.14578 8.07975L8.09245 4.13309C10.0524 2.17309 12.0391 2.17309 13.9991 4.13309L14.9858 5.11975" stroke="white" stroke-width="1.5" stroke-linecap="round"/>
<path id="Vector_6" d="M14.9997 5.13379L10.0664 10.0671" stroke="white" stroke-width="1.5" stroke-linecap="round"/>
<path id="Vector_7" d="M26.8256 16.9736L22.8789 20.907" stroke="white" stroke-width="1.5" stroke-linecap="round"/>
</g>
<defs>
<clipPath id="clip0_2710_104">
<rect width="32" height="32" fill="white"/>
</clipPath>
</defs>
</svg>
