<svg width="32" height="32" viewBox="0 0 32 32" fill="none" xmlns="http://www.w3.org/2000/svg">
<g id="vuesax/linear/path-square">
<g id="vuesax/linear/path-square_2">
<g id="path-square">
<path id="Vector" d="M12.0013 29.3337H20.0013C26.668 29.3337 29.3346 26.667 29.3346 20.0003V12.0003C29.3346 5.33366 26.668 2.66699 20.0013 2.66699H12.0013C5.33464 2.66699 2.66797 5.33366 2.66797 12.0003V20.0003C2.66797 26.667 5.33464 29.3337 12.0013 29.3337Z" stroke="white" stroke-width="1.5" stroke-linecap="round" stroke-linejoin="round"/>
<g id="brush">
<path id="Vector_2" d="M14.332 19.3329C14.332 17.9494 14.332 16.8326 16.8324 16.8326H20.1661C22.6664 16.8326 22.6664 15.9991 22.6664 14.3322V12.6654C22.6664 10.9985 22.6664 10.165 20.1661 10.165H19.3327" stroke="white" stroke-linecap="round" stroke-linejoin="round"/>
<path id="Vector_3" d="M15.9979 7.66406H12.6641C12.1224 9.28927 12.1224 11.0395 12.6641 12.6647H15.9979C16.5396 11.0395 16.5396 9.28927 15.9979 7.66406Z" stroke="white" stroke-linecap="round" stroke-linejoin="round"/>
<path id="Vector_4" d="M12.6619 7.66406H11.8285C10.1616 7.66406 9.32812 8.4975 9.32812 10.1644C9.32812 11.8313 10.1616 12.6647 11.8285 12.6647H12.6619C11.8285 10.9978 11.8285 9.33095 12.6619 7.66406Z" stroke="white" stroke-linecap="round" stroke-linejoin="round"/>
<path id="Vector_5" d="M16.8334 7.66406H16C16.8334 9.33095 16.8334 10.9978 16 12.6647H16.8334C18.5003 12.6647 19.3338 11.8313 19.3338 10.1644C19.3338 8.4975 18.5003 7.66406 16.8334 7.66406Z" stroke="white" stroke-linecap="round" stroke-linejoin="round"/>
<path id="Vector_6" d="M13.9103 24.3346H14.7438C15.9939 24.3346 15.9939 23.5012 15.9939 23.0845V20.5841C15.9939 20.1674 15.9939 19.334 14.7438 19.334H13.9103C12.6602 19.334 12.6602 20.1674 12.6602 20.5841V23.0845C12.6602 23.5012 12.6602 24.3346 13.9103 24.3346Z" stroke="white" stroke-linecap="round" stroke-linejoin="round"/>
</g>
</g>
</g>
</g>
</svg>
