<svg width="34" height="34" viewBox="0 0 34 34" fill="none" xmlns="http://www.w3.org/2000/svg">
<g id="vuesax/linear/recovery-convert">
<g id="recovery-convert">
<path id="Vector" d="M21.1616 17.9278V22.2958C21.1616 25.9438 19.7056 27.3998 16.0576 27.3998H11.7056C8.07356 27.3998 6.60156 25.9438 6.60156 22.2958V17.9278C6.60156 14.2958 8.05756 12.8398 11.7056 12.8398H16.0736C19.7056 12.8398 21.1616 14.2958 21.1616 17.9278Z" stroke="white" stroke-width="1.5" stroke-linecap="round" stroke-linejoin="round"/>
<path id="Vector_2" d="M27.3998 11.6876V16.0556C27.3998 19.7036 25.9438 21.1596 22.2958 21.1596H21.1598V17.9276C21.1598 14.2956 19.7038 12.8396 16.0558 12.8396H12.8398V11.6876C12.8398 8.03961 14.2958 6.59961 17.9438 6.59961H22.3118C25.9438 6.59961 27.3998 8.05561 27.3998 11.6876Z" stroke="white" stroke-width="1.5" stroke-linecap="round" stroke-linejoin="round"/>
<path id="Vector_3" d="M33.0008 21.7998C33.0008 27.9918 27.9928 32.9998 21.8008 32.9998L23.4808 30.1998" stroke="white" stroke-width="1.5" stroke-linecap="round" stroke-linejoin="round"/>
<path id="Vector_4" d="M1 12.2C1 6.008 6.008 1 12.2 1L10.52 3.8" stroke="white" stroke-width="1.5" stroke-linecap="round" stroke-linejoin="round"/>
</g>
</g>
</svg>
